<svg width="42" height="42" viewBox="0 0 42 42" fill="none" xmlns="http://www.w3.org/2000/svg">
<path d="M17.6937 15.7592V27.5137C17.7073 28.3751 18.059 29.1965 18.6729 29.8008C19.2869 30.4052 20.1138 30.7439 20.9752 30.7439C21.8367 30.7439 22.6636 30.4052 23.2775 29.8008C23.8914 29.1965 24.2432 28.3751 24.2568 27.5137L24.2674 12.0744C24.2763 11.3382 24.139 10.6075 23.8635 9.92475C23.5879 9.242 23.1796 8.62074 22.6622 8.09698C22.1447 7.57322 21.5285 7.15738 20.8491 6.87356C20.1697 6.58975 19.4408 6.4436 18.7046 6.4436C17.9683 6.4436 17.2394 6.58975 16.56 6.87356C15.8807 7.15738 15.2644 7.57322 14.7469 8.09698C14.2295 8.62074 13.8212 9.242 13.5456 9.92475C13.2701 10.6075 13.1328 11.3382 13.1417 12.0744V27.6177C13.1714 29.6721 14.0084 31.6323 15.4717 33.0746C16.935 34.5169 18.9071 35.3254 20.9617 35.3254C23.0163 35.3254 24.9884 34.5169 26.4517 33.0746C27.915 31.6323 28.752 29.6721 28.7817 27.6177V13.093" stroke="#7C01F6" stroke-width="2.62032" stroke-miterlimit="10" stroke-linecap="square"/>
</svg>
