<svg width="42" height="42" viewBox="0 0 42 42" fill="none" xmlns="http://www.w3.org/2000/svg">
<path d="M37.5438 4.91097C36.6893 4.03394 35.4246 3.7072 34.2454 4.05113L6.74703 12.0476C5.50286 12.3933 4.621 13.3855 4.38344 14.646C4.14076 15.9289 4.98844 17.5574 6.09589 18.2384L14.694 23.523C15.5759 24.0647 16.7141 23.9288 17.4439 23.1928L27.2896 13.2858C27.7852 12.7699 28.6056 12.7699 29.1012 13.2858C29.5968 13.7845 29.5968 14.5927 29.1012 15.1086L19.2384 25.0174C18.5069 25.7517 18.3702 26.8952 18.9085 27.7826L24.1621 36.4669C24.7773 37.4987 25.8369 38.0834 26.9991 38.0834C27.1358 38.0834 27.2896 38.0834 27.4263 38.0662C28.7594 37.8942 29.819 36.9828 30.2121 35.6931L38.3641 8.22993C38.723 7.06056 38.3983 5.788 37.5438 4.91097Z" fill="#7C01F6"/>
</svg>
