<svg width="18" height="16" viewBox="0 0 18 16" fill="none" xmlns="http://www.w3.org/2000/svg">
<path d="M18 7.99993C18 8.19884 17.921 8.38961 17.7803 8.53026C17.6397 8.67091 17.4489 8.74993 17.25 8.74993H2.56031L8.03062 14.2193C8.1003 14.289 8.15558 14.3717 8.19329 14.4628C8.231 14.5538 8.25041 14.6514 8.25041 14.7499C8.25041 14.8485 8.231 14.9461 8.19329 15.0371C8.15558 15.1281 8.1003 15.2109 8.03062 15.2806C7.96094 15.3502 7.87821 15.4055 7.78717 15.4432C7.69612 15.4809 7.59854 15.5003 7.5 15.5003C7.40145 15.5003 7.30387 15.4809 7.21282 15.4432C7.12178 15.4055 7.03905 15.3502 6.96937 15.2806L0.21937 8.53055C0.149637 8.4609 0.0943183 8.37818 0.0565751 8.28713C0.0188319 8.19609 -0.000595093 8.09849 -0.000595093 7.99993C-0.000595093 7.90137 0.0188319 7.80377 0.0565751 7.71272C0.0943183 7.62168 0.149637 7.53896 0.21937 7.4693L6.96937 0.719304C7.1101 0.578573 7.30097 0.499512 7.5 0.499512C7.69902 0.499512 7.88989 0.578573 8.03062 0.719304C8.17135 0.860034 8.25041 1.05091 8.25041 1.24993C8.25041 1.44895 8.17135 1.63982 8.03062 1.78055L2.56031 7.24993H17.25C17.4489 7.24993 17.6397 7.32895 17.7803 7.4696C17.921 7.61025 18 7.80102 18 7.99993Z" fill="#830EF7"/>
</svg>
